<svg width="118" height="118" viewBox="0 0 118 118" fill="none" xmlns="http://www.w3.org/2000/svg">
<path fill-rule="evenodd" clip-rule="evenodd" d="M36.5038 88.9024C36.5038 90.3008 37.2297 91 38.6815 91H46.1482C49.9112 91 52.4889 89.6016 53.8815 86.8047L82.726 31.2399C83.1704 30.496 83.3926 29.7968 83.3926 29.1423C83.3926 27.7141 82.6667 27 81.2149 27H73.7482C69.9852 27 67.4075 28.4133 66.0149 31.2399L37.126 86.8047C36.7112 87.5188 36.5038 88.218 36.5038 88.9024ZM86.1333 73.4305V81.1069C86.1333 82.2078 86.5333 82.9516 87.3333 83.3384C87.6 83.4872 87.9556 83.5616 88.4 83.5616C88.8444 83.5616 89.3926 83.3533 90.0444 82.9368L115.333 64.9061C117.111 63.6564 118 62.0497 118 60.086V57.8991C117.97 55.9354 117.081 54.3138 115.333 53.0344L90.0444 35.0483C89.3926 34.602 88.8444 34.3789 88.4 34.3789C87.9852 34.3789 87.6296 34.4533 87.3333 34.602C86.5333 35.0186 86.1333 35.7773 86.1333 36.8782V44.5546C86.1333 46.7564 87.437 48.7648 90.0444 50.5797L101.867 58.9702L90.0444 67.4054C87.437 69.2204 86.1333 71.2287 86.1333 73.4305ZM0 57.8991V60.086C0 62.0497 0.888889 63.6564 2.66667 64.9061L27.9556 82.9368C28.9926 83.5914 29.8963 83.7252 30.6667 83.3384C31.4667 82.9516 31.8667 82.2078 31.8667 81.1069V73.4305C31.8667 71.2287 30.563 69.2204 27.9556 67.4054L16.1333 58.9702L27.9556 50.5797C30.563 48.7648 31.8667 46.7564 31.8667 44.5546V36.8782C31.8667 35.7773 31.4667 35.0335 30.6667 34.6467C29.8963 34.2301 28.9926 34.364 27.9556 35.0483L2.66667 53.0344C0.888889 54.3138 0 55.9354 0 57.8991Z" fill="white"/>
</svg>
