<svg width="138" height="138" viewBox="0 0 138 138" fill="none" xmlns="http://www.w3.org/2000/svg">
<path fill-rule="evenodd" clip-rule="evenodd" d="M34.1953 20.0127L39.0059 17.2484L68.9996 0L99.0059 17.2484L129 34.4969V68.2683L109.268 56.8735V45.8416L89.1336 34.2717L68.9996 22.6894L48.8656 34.2717L34.1953 42.7021V20.0127Z" fill="#DC0000"/>
<path fill-rule="evenodd" clip-rule="evenodd" d="M74.4636 112.159L89.1339 103.728L109.268 92.1459V79.5754L129 90.9702V103.503L99.0062 120.752L94.1957 123.516L74.4636 112.159Z" fill="#DC0000"/>
<path fill-rule="evenodd" clip-rule="evenodd" d="M69 138L39.0063 120.752L9 103.503V69.0063V34.4969L28.7321 23.1522V45.8416V69.0063V78.4373V92.1459L48.8661 103.728L49.067 103.841L69 115.298L88.7447 126.643L69 138Z" fill="#FAFAFA"/>
<path d="M53.9274 26.1417H34.1953V88.4436H53.9274V26.1417Z" fill="#DC0000"/>
<path fill-rule="evenodd" clip-rule="evenodd" d="M104.068 106.493L94.1954 123.516L34.1953 88.4311L44.0551 71.4203L104.068 106.493Z" fill="#DC0000"/>
<path fill-rule="evenodd" clip-rule="evenodd" d="M129 100.439L69.1255 66.0043V43.1774L129 77.7368V100.439Z" fill="#DC0000"/>
</svg>
